<svg width="72" height="72" viewBox="0 0 72 72" fill="none" xmlns="http://www.w3.org/2000/svg">
<rect width="72" height="72" rx="16" fill="#3136FF"/>
<path fill-rule="evenodd" clip-rule="evenodd" d="M50.8884 36.605H55.5112C55.3595 25.5814 46.6651 16.6125 35.7637 15.9883V20.6105C44.1179 21.2239 50.7395 28.1323 50.8884 36.605ZM44.9776 36.6031H48.0581C47.9116 29.6887 42.5561 24.0402 35.7634 23.4355V26.533C40.8562 27.1229 44.8346 31.3895 44.9776 36.6031ZM35.8215 44.6401C36.408 45.1735 37.202 45.4188 37.988 45.3053C39.1133 45.1474 39.4818 44.6122 39.9788 43.8903C40.1558 43.6331 40.3492 43.3523 40.599 43.0563L53.6157 52.1731C51.8037 55.294 48.6356 56.3079 44.8548 55.937C43.0011 55.7018 34.9729 49.8686 28.2505 42.7161C21.9591 36.0247 16.9004 28.0546 16.5827 25.834C16.0264 21.5884 18.0437 18.5387 20.9501 17.1211L29.1224 30.7508C28.7873 30.9935 28.4338 31.2101 28.0644 31.4C26.5975 32.1524 26.1566 34.0762 27.1876 35.3955C28.3896 36.9337 29.848 38.7245 31.0696 39.9919L31.0756 39.987C31.0793 39.9838 31.0828 39.9808 31.087 39.9784C32.3652 41.4157 34.2426 43.1991 35.8215 44.6401ZM31.4293 26.4634L25.9273 17.2678C25.1848 16.0202 23.7016 15.5326 21.8862 16.6102L30.0953 30.3321C31.9049 29.2554 32.1756 27.7061 31.4293 26.4634ZM45.33 41.0449L53.9848 47.3644C55.1538 48.2216 55.4123 49.8806 54.5579 51.0496L54.2656 51.4469L41.3516 42.0178C42.6016 40.3142 44.1596 40.1863 45.33 41.0449Z" fill="white"/>
<path fill-rule="evenodd" clip-rule="evenodd" d="M50.8884 36.605H55.5112C55.3595 25.5814 46.6651 16.6125 35.7637 15.9883V20.6105C44.1179 21.2239 50.7395 28.1323 50.8884 36.605ZM44.9776 36.6031H48.0581C47.9116 29.6887 42.5561 24.0402 35.7634 23.4355V26.533C40.8562 27.1229 44.8346 31.3895 44.9776 36.6031ZM35.8215 44.6401C36.408 45.1735 37.202 45.4188 37.988 45.3053C39.1133 45.1474 39.4818 44.6122 39.9788 43.8903C40.1558 43.6331 40.3492 43.3523 40.599 43.0563L53.6157 52.1731C51.8037 55.294 48.6356 56.3079 44.8548 55.937C43.0011 55.7018 34.9729 49.8686 28.2505 42.7161C21.9591 36.0247 16.9004 28.0546 16.5827 25.834C16.0264 21.5884 18.0437 18.5387 20.9501 17.1211L29.1224 30.7508C28.7873 30.9935 28.4338 31.2101 28.0644 31.4C26.5975 32.1524 26.1566 34.0762 27.1876 35.3955C28.3896 36.9337 29.848 38.7245 31.0696 39.9919L31.0756 39.987C31.0793 39.9838 31.0828 39.9808 31.087 39.9784C32.3652 41.4157 34.2426 43.1991 35.8215 44.6401ZM31.4293 26.4634L25.9273 17.2678C25.1848 16.0202 23.7016 15.5326 21.8862 16.6102L30.0953 30.3321C31.9049 29.2554 32.1756 27.7061 31.4293 26.4634ZM45.33 41.0449L53.9848 47.3644C55.1538 48.2216 55.4123 49.8806 54.5579 51.0496L54.2656 51.4469L41.3516 42.0178C42.6016 40.3142 44.1596 40.1863 45.33 41.0449Z" fill="#3136FF" fill-opacity="0.1"/>
</svg>
