<svg width="72" height="72" viewBox="0 0 72 72" fill="none" xmlns="http://www.w3.org/2000/svg">
<rect width="72" height="72" rx="16" fill="#3136FF"/>
<path d="M36 12C49.2546 12 60 22.7454 60 36C60 49.2546 49.2546 60 36 60C22.7454 60 12 49.2546 12 36C12 22.7454 22.7454 12 36 12ZM48.0708 29.9256C47.7328 29.5886 47.2748 29.3997 46.7975 29.4004C46.3202 29.4011 45.8627 29.5913 45.5256 29.9292L37.8414 37.635L33.2406 32.6226C33.0745 32.4416 32.8731 32.2965 32.6489 32.1963C32.4246 32.0961 32.1822 32.0428 31.9366 32.0397C31.691 32.0367 31.4473 32.084 31.2207 32.1786C30.994 32.2733 30.7891 32.4134 30.6186 32.5902L23.9046 39.5502C23.5731 39.8938 23.3917 40.3549 23.4003 40.8322C23.4088 41.3096 23.6066 41.7639 23.9502 42.0954C24.2938 42.4269 24.7549 42.6083 25.2322 42.5997C25.7096 42.5912 26.1639 42.3934 26.4954 42.0498L31.8816 36.4662L36.4614 41.4558C36.6258 41.6349 36.8247 41.7789 37.0462 41.8791C37.2678 41.9792 37.5073 42.0335 37.7504 42.0385C37.9934 42.0436 38.235 41.9993 38.4605 41.9084C38.686 41.8176 38.8907 41.682 39.0624 41.5098L48.0744 32.4708C48.4114 32.1328 48.6003 31.6747 48.5996 31.1975C48.5989 30.7202 48.4087 30.2627 48.0708 29.9256Z" fill="white"/>
<path d="M36 12C49.2546 12 60 22.7454 60 36C60 49.2546 49.2546 60 36 60C22.7454 60 12 49.2546 12 36C12 22.7454 22.7454 12 36 12ZM48.0708 29.9256C47.7328 29.5886 47.2748 29.3997 46.7975 29.4004C46.3202 29.4011 45.8627 29.5913 45.5256 29.9292L37.8414 37.635L33.2406 32.6226C33.0745 32.4416 32.8731 32.2965 32.6489 32.1963C32.4246 32.0961 32.1822 32.0428 31.9366 32.0397C31.691 32.0367 31.4473 32.084 31.2207 32.1786C30.994 32.2733 30.7891 32.4134 30.6186 32.5902L23.9046 39.5502C23.5731 39.8938 23.3917 40.3549 23.4003 40.8322C23.4088 41.3096 23.6066 41.7639 23.9502 42.0954C24.2938 42.4269 24.7549 42.6083 25.2322 42.5997C25.7096 42.5912 26.1639 42.3934 26.4954 42.0498L31.8816 36.4662L36.4614 41.4558C36.6258 41.6349 36.8247 41.7789 37.0462 41.8791C37.2678 41.9792 37.5073 42.0335 37.7504 42.0385C37.9934 42.0436 38.235 41.9993 38.4605 41.9084C38.686 41.8176 38.8907 41.682 39.0624 41.5098L48.0744 32.4708C48.4114 32.1328 48.6003 31.6747 48.5996 31.1975C48.5989 30.7202 48.4087 30.2627 48.0708 29.9256Z" fill="#3136FF" fill-opacity="0.1"/>
</svg>
