<svg width="72" height="72" viewBox="0 0 72 72" fill="none" xmlns="http://www.w3.org/2000/svg">
<rect width="72" height="72" rx="16" fill="#3136FF"/>
<g clip-path="url(#clip0_2679_5293)">
<path d="M57.7941 53.9901C57.443 53.5957 57.2129 53.1085 57.1312 52.5869C56.9504 51.0243 56.7997 49.4273 56.6534 47.882C56.3951 45.1529 56.1282 42.3334 55.6935 39.5871C54.7938 33.9525 53.0117 29.4284 50.2482 25.7738C49.9124 25.3434 49.5595 24.9129 49.1807 24.4825L48.8234 24.052L49.1979 23.9788C49.6283 23.8971 50.0244 23.8196 50.4032 23.7808C52.4866 23.5527 54.4925 24.1596 56.7179 25.6877C57.5229 26.2387 58.2977 26.1182 58.7884 25.4209C59.2791 24.7235 59.0596 24.0563 58.2762 23.4924C55.263 21.3402 52.3273 20.5782 49.2797 21.2153C49.0949 21.2466 48.9074 21.2595 48.7201 21.2541C49.581 18.8823 51.7333 17.1647 54.0104 17.126C54.7815 17.1331 55.5505 17.2066 56.309 17.3455C56.9419 17.4515 57.5798 17.5248 58.2202 17.5651C58.6254 17.5371 59.0126 17.387 59.3308 17.1346C59.4694 17.0407 59.6131 16.9544 59.7613 16.8763L59.9679 16.7773L59.856 16.5793C59.773 16.4226 59.6983 16.2617 59.6321 16.0972C59.4556 15.6668 59.2748 15.2363 58.9262 15.1287C54.8799 13.7512 51.7333 14.1516 49.0171 16.3038L46.9983 17.9094C47.0509 17.2535 47.2355 16.6149 47.541 16.032C47.8465 15.4491 48.2666 14.934 48.7761 14.5174C48.9644 14.3945 49.1246 14.2332 49.2463 14.044C49.3679 13.8549 49.4482 13.6421 49.482 13.4198C49.487 13.2458 49.4568 13.0726 49.3932 12.9106C49.3296 12.7486 49.2339 12.6012 49.1118 12.4771C48.7072 12.0466 48.0185 11.6635 47.0327 12.4771C45.5692 13.7211 44.7083 15.4429 44.394 17.7114C44.3295 18.1677 44.2778 18.6283 44.2175 19.1319L44.1702 19.5193L43.5546 19.0458C40.012 16.3038 35.828 15.7399 30.8261 17.2982C30.5614 17.4421 30.3412 17.6558 30.1894 17.9161C30.0376 18.1764 29.9601 18.4734 29.9652 18.7746C30.0513 19.2051 30.6926 19.4935 31.2092 19.7216L31.2738 19.7518C31.4836 19.8129 31.7078 19.8023 31.9108 19.7216C32.0026 19.6951 32.0961 19.675 32.1906 19.6614C32.733 19.6226 33.2754 19.5667 33.8177 19.515C35.1027 19.3551 36.3971 19.2832 37.6918 19.2998C39.1296 19.3471 40.4597 19.9283 41.9447 21.1723L41.7037 21.1378C36.379 20.1177 31.5665 22.1408 28.8202 26.5487C28.6559 26.8356 28.5568 27.1553 28.53 27.4848C28.5033 27.8144 28.5494 28.1458 28.6652 28.4556C28.7198 28.5924 28.8087 28.713 28.9232 28.8057C29.0378 28.8984 29.1742 28.9602 29.3195 28.985C29.9092 29.0797 30.5678 28.5546 31.0413 28.0639L31.4718 27.599C32.535 26.4841 33.624 25.3305 34.9154 24.5858C36.9601 23.3977 39.3577 23.1997 42.2331 23.9831C42.0007 24.1252 41.8285 24.2328 41.6649 24.349C39.0822 26.1526 37.6144 28.7698 37.2915 32.1187C37.1925 33.1217 37.5627 33.6727 38.3806 33.7674C39.1984 33.8621 39.6719 33.4316 39.9044 32.4975C39.956 32.2737 39.9991 32.0671 40.0464 31.8303C40.1719 31.1321 40.3592 30.4464 40.606 29.7814C40.982 28.7792 41.5942 27.8825 42.3909 27.1676C43.1875 26.4527 44.1449 25.9406 45.1818 25.6748C47.8979 32.7946 48.3155 40.25 46.4473 48.4459C45.2076 48.377 43.9722 48.2823 42.7755 48.1919C39.9669 47.9305 37.1461 47.8213 34.3257 47.8648C31.5019 48.0171 28.6883 48.3217 25.8974 48.7773C24.7653 48.9409 23.5988 49.1131 22.4537 49.2594L23.9216 41.1712L26.0997 41.5414C27.8689 41.8427 29.595 42.1311 31.3168 42.4324C32.1777 42.5874 32.7804 42.4884 33.1032 42.1354C33.426 41.7824 33.4777 41.2099 33.2582 40.3706C32.2939 36.6428 29.9953 34.0472 26.2288 32.4287C25.8183 32.1921 25.4723 31.8579 25.2216 31.4558C25.0896 31.2392 24.9095 31.0559 24.6953 30.92C24.481 30.7842 24.2384 30.6994 23.9862 30.6724C23.8294 30.673 23.6753 30.7127 23.5378 30.7879C23.4002 30.863 23.2836 30.9713 23.1984 31.1029C22.768 31.6926 22.273 31.7141 21.6617 31.7356H21.2786C19.4826 31.839 17.7384 32.3762 16.1955 33.3013C14.6527 34.2265 13.3571 35.5119 12.4199 37.0474C12.2609 37.2383 12.1517 37.4656 12.1022 37.709C12.0526 37.9524 12.0641 38.2043 12.1358 38.4421C12.2517 38.6735 12.4226 38.873 12.6334 39.0231C12.8443 39.1731 13.0887 39.2693 13.3453 39.303C13.6897 39.3848 14.0298 39.4494 14.4086 39.5139L20.0045 40.4868L21.2097 40.6977C21.0806 41.3907 20.9429 42.0752 20.8051 42.751C20.4341 44.3932 20.1525 46.0543 19.9614 47.727C19.7634 49.9439 18.9068 51.1707 17.0042 52.0316C15.9225 52.4786 14.9478 53.1498 14.1443 54.0008C13.3408 54.8518 12.7267 55.8634 12.3424 56.9689C11.9507 58.0924 11.9334 58.8112 12.2778 59.2976C12.6222 59.7841 13.2894 59.9907 14.4516 59.9907H58.061C58.1857 59.9971 58.3107 59.9971 58.4355 59.9907C58.6647 59.988 58.8911 59.9385 59.1005 59.8453C59.31 59.752 59.4982 59.6169 59.6536 59.4483C59.7861 59.2451 59.8755 59.0168 59.9162 58.7777C59.9569 58.5385 59.9481 58.2936 59.8904 58.0579C59.6881 56.6288 59.0424 55.3762 57.7941 53.9901ZM49.2452 29.3079C53.2528 36.1951 53.8468 43.9132 54.3763 51.4117L48.9482 49.3111C50.5581 42.7515 50.6597 35.9123 49.2452 29.3079Z" fill="white"/>
<path d="M57.7941 53.9901C57.443 53.5957 57.2129 53.1085 57.1312 52.5869C56.9504 51.0243 56.7997 49.4273 56.6534 47.882C56.3951 45.1529 56.1282 42.3334 55.6935 39.5871C54.7938 33.9525 53.0117 29.4284 50.2482 25.7738C49.9124 25.3434 49.5595 24.9129 49.1807 24.4825L48.8234 24.052L49.1979 23.9788C49.6283 23.8971 50.0244 23.8196 50.4032 23.7808C52.4866 23.5527 54.4925 24.1596 56.7179 25.6877C57.5229 26.2387 58.2977 26.1182 58.7884 25.4209C59.2791 24.7235 59.0596 24.0563 58.2762 23.4924C55.263 21.3402 52.3273 20.5782 49.2797 21.2153C49.0949 21.2466 48.9074 21.2595 48.7201 21.2541C49.581 18.8823 51.7333 17.1647 54.0104 17.126C54.7815 17.1331 55.5505 17.2066 56.309 17.3455C56.9419 17.4515 57.5798 17.5248 58.2202 17.5651C58.6254 17.5371 59.0126 17.387 59.3308 17.1346C59.4694 17.0407 59.6131 16.9544 59.7613 16.8763L59.9679 16.7773L59.856 16.5793C59.773 16.4226 59.6983 16.2617 59.6321 16.0972C59.4556 15.6668 59.2748 15.2363 58.9262 15.1287C54.8799 13.7512 51.7333 14.1516 49.0171 16.3038L46.9983 17.9094C47.0509 17.2535 47.2355 16.6149 47.541 16.032C47.8465 15.4491 48.2666 14.934 48.7761 14.5174C48.9644 14.3945 49.1246 14.2332 49.2463 14.044C49.3679 13.8549 49.4482 13.6421 49.482 13.4198C49.487 13.2458 49.4568 13.0726 49.3932 12.9106C49.3296 12.7486 49.2339 12.6012 49.1118 12.4771C48.7072 12.0466 48.0185 11.6635 47.0327 12.4771C45.5692 13.7211 44.7083 15.4429 44.394 17.7114C44.3295 18.1677 44.2778 18.6283 44.2175 19.1319L44.1702 19.5193L43.5546 19.0458C40.012 16.3038 35.828 15.7399 30.8261 17.2982C30.5614 17.4421 30.3412 17.6558 30.1894 17.9161C30.0376 18.1764 29.9601 18.4734 29.9652 18.7746C30.0513 19.2051 30.6926 19.4935 31.2092 19.7216L31.2738 19.7518C31.4836 19.8129 31.7078 19.8023 31.9108 19.7216C32.0026 19.6951 32.0961 19.675 32.1906 19.6614C32.733 19.6226 33.2754 19.5667 33.8177 19.515C35.1027 19.3551 36.3971 19.2832 37.6918 19.2998C39.1296 19.3471 40.4597 19.9283 41.9447 21.1723L41.7037 21.1378C36.379 20.1177 31.5665 22.1408 28.8202 26.5487C28.6559 26.8356 28.5568 27.1553 28.53 27.4848C28.5033 27.8144 28.5494 28.1458 28.6652 28.4556C28.7198 28.5924 28.8087 28.713 28.9232 28.8057C29.0378 28.8984 29.1742 28.9602 29.3195 28.985C29.9092 29.0797 30.5678 28.5546 31.0413 28.0639L31.4718 27.599C32.535 26.4841 33.624 25.3305 34.9154 24.5858C36.9601 23.3977 39.3577 23.1997 42.2331 23.9831C42.0007 24.1252 41.8285 24.2328 41.6649 24.349C39.0822 26.1526 37.6144 28.7698 37.2915 32.1187C37.1925 33.1217 37.5627 33.6727 38.3806 33.7674C39.1984 33.8621 39.6719 33.4316 39.9044 32.4975C39.956 32.2737 39.9991 32.0671 40.0464 31.8303C40.1719 31.1321 40.3592 30.4464 40.606 29.7814C40.982 28.7792 41.5942 27.8825 42.3909 27.1676C43.1875 26.4527 44.1449 25.9406 45.1818 25.6748C47.8979 32.7946 48.3155 40.25 46.4473 48.4459C45.2076 48.377 43.9722 48.2823 42.7755 48.1919C39.9669 47.9305 37.1461 47.8213 34.3257 47.8648C31.5019 48.0171 28.6883 48.3217 25.8974 48.7773C24.7653 48.9409 23.5988 49.1131 22.4537 49.2594L23.9216 41.1712L26.0997 41.5414C27.8689 41.8427 29.595 42.1311 31.3168 42.4324C32.1777 42.5874 32.7804 42.4884 33.1032 42.1354C33.426 41.7824 33.4777 41.2099 33.2582 40.3706C32.2939 36.6428 29.9953 34.0472 26.2288 32.4287C25.8183 32.1921 25.4723 31.8579 25.2216 31.4558C25.0896 31.2392 24.9095 31.0559 24.6953 30.92C24.481 30.7842 24.2384 30.6994 23.9862 30.6724C23.8294 30.673 23.6753 30.7127 23.5378 30.7879C23.4002 30.863 23.2836 30.9713 23.1984 31.1029C22.768 31.6926 22.273 31.7141 21.6617 31.7356H21.2786C19.4826 31.839 17.7384 32.3762 16.1955 33.3013C14.6527 34.2265 13.3571 35.5119 12.4199 37.0474C12.2609 37.2383 12.1517 37.4656 12.1022 37.709C12.0526 37.9524 12.0641 38.2043 12.1358 38.4421C12.2517 38.6735 12.4226 38.873 12.6334 39.0231C12.8443 39.1731 13.0887 39.2693 13.3453 39.303C13.6897 39.3848 14.0298 39.4494 14.4086 39.5139L20.0045 40.4868L21.2097 40.6977C21.0806 41.3907 20.9429 42.0752 20.8051 42.751C20.4341 44.3932 20.1525 46.0543 19.9614 47.727C19.7634 49.9439 18.9068 51.1707 17.0042 52.0316C15.9225 52.4786 14.9478 53.1498 14.1443 54.0008C13.3408 54.8518 12.7267 55.8634 12.3424 56.9689C11.9507 58.0924 11.9334 58.8112 12.2778 59.2976C12.6222 59.7841 13.2894 59.9907 14.4516 59.9907H58.061C58.1857 59.9971 58.3107 59.9971 58.4355 59.9907C58.6647 59.988 58.8911 59.9385 59.1005 59.8453C59.31 59.752 59.4982 59.6169 59.6536 59.4483C59.7861 59.2451 59.8755 59.0168 59.9162 58.7777C59.9569 58.5385 59.9481 58.2936 59.8904 58.0579C59.6881 56.6288 59.0424 55.3762 57.7941 53.9901ZM49.2452 29.3079C53.2528 36.1951 53.8468 43.9132 54.3763 51.4117L48.9482 49.3111C50.5581 42.7515 50.6597 35.9123 49.2452 29.3079Z" fill="#3136FF" fill-opacity="0.1"/>
</g>
<defs>
<clipPath id="clip0_2679_5293">
<rect width="48" height="48" fill="white" transform="translate(12 12)"/>
</clipPath>
</defs>
</svg>
