<svg width="72" height="72" viewBox="0 0 72 72" fill="none" xmlns="http://www.w3.org/2000/svg">
<rect width="72" height="72" rx="16" fill="#3136FF"/>
<g clip-path="url(#clip0_2679_5595)">
<path d="M59.2819 41.8091C56.0761 54.6678 43.0523 62.4933 30.1921 59.2868C17.3373 56.081 9.5117 43.0564 12.7188 30.1988C15.9232 17.3387 28.947 9.51251 41.8032 12.7182C54.6625 15.924 62.4876 28.95 59.2815 41.8093L59.2818 41.8091H59.2819Z" fill="white"/>
<path d="M59.2819 41.8091C56.0761 54.6678 43.0523 62.4933 30.1921 59.2868C17.3373 56.081 9.5117 43.0564 12.7188 30.1988C15.9232 17.3387 28.947 9.51251 41.8032 12.7182C54.6625 15.924 62.4876 28.95 59.2815 41.8093L59.2818 41.8091H59.2819Z" fill="#3136FF" fill-opacity="0.1"/>
<path d="M46.5847 32.584C47.0624 29.3898 44.6305 27.6727 41.3051 26.5273L42.3839 22.2004L39.75 21.5441L38.6998 25.7571C38.0074 25.5844 37.2963 25.4217 36.5896 25.2603L37.6473 21.0196L35.0151 20.3633L33.9357 24.6887C33.3627 24.5583 32.7999 24.4293 32.2539 24.2935L32.2569 24.2799L28.6247 23.3729L27.9241 26.186C27.9241 26.186 29.8782 26.634 29.837 26.6615C30.9036 26.9277 31.0965 27.6338 31.0645 28.1934L29.8356 33.1227C29.9091 33.1414 30.0043 33.1684 30.1095 33.2106C30.0216 33.1888 29.9281 33.165 29.831 33.1417L28.1086 40.047C27.9783 40.3711 27.6474 40.8574 26.9017 40.6727C26.9281 40.711 24.9874 40.195 24.9874 40.195L23.6797 43.2099L27.1073 44.0644C27.7449 44.2243 28.3698 44.3916 28.9852 44.5489L27.8952 48.9254L30.5261 49.5817L31.6054 45.2517C32.3242 45.4468 33.0216 45.6268 33.7045 45.7964L32.6287 50.1061L35.2628 50.7624L36.3526 46.3941C40.8439 47.2441 44.2211 46.9014 45.6425 42.839C46.788 39.5682 45.5855 37.6817 43.2226 36.4514C44.9437 36.0545 46.24 34.9226 46.5856 32.5843L46.5848 32.5838L46.5847 32.584ZM40.5668 41.0226C39.7528 44.2933 34.2459 42.5252 32.4605 42.0819L33.9068 36.2838C35.6922 36.7295 41.4175 37.6115 40.5669 41.0226H40.5668ZM41.3814 32.5366C40.6388 35.5117 36.0554 34.0002 34.5686 33.6296L35.8799 28.371C37.3667 28.7417 42.1549 29.4334 41.3816 32.5366H41.3814Z" fill="#3136FF"/>
</g>
<defs>
<clipPath id="clip0_2679_5595">
<rect width="48" height="48.0054" fill="white" transform="translate(12 12)"/>
</clipPath>
</defs>
</svg>
