<svg width="72" height="72" viewBox="0 0 72 72" fill="none" xmlns="http://www.w3.org/2000/svg">
<rect width="72" height="72" rx="16" fill="#3136FF"/>
<g clip-path="url(#clip0_2679_5254)">
<path d="M59.2819 41.8091C56.0761 54.6678 43.0523 62.4933 30.1921 59.2868C17.3373 56.081 9.5117 43.0564 12.7188 30.1988C15.9232 17.3387 28.947 9.51251 41.8032 12.7182C54.6625 15.924 62.4876 28.95 59.2815 41.8093L59.2818 41.8091H59.2819Z" fill="white"/>
<path d="M59.2819 41.8091C56.0761 54.6678 43.0523 62.4933 30.1921 59.2868C17.3373 56.081 9.5117 43.0564 12.7188 30.1988C15.9232 17.3387 28.947 9.51251 41.8032 12.7182C54.6625 15.924 62.4876 28.95 59.2815 41.8093L59.2818 41.8091H59.2819Z" fill="#3136FF" fill-opacity="0.1"/>
<path fill-rule="evenodd" clip-rule="evenodd" d="M53.4922 52.4367C56.2132 49.5452 58.253 45.9371 59.2817 41.8106L59.2814 41.8108C59.6637 40.2774 59.8892 38.7416 59.968 37.2204C59.8509 34.3866 59.4325 31.4894 59.0474 29.3167C58.8925 28.7845 58.7193 28.2586 58.5286 27.7399C58.5029 27.7237 58.476 27.7098 58.4471 27.7001C58.3801 27.6777 58.3131 27.6553 58.235 27.6553C58.1681 27.6553 58.09 27.6553 58.023 27.6777C57.956 27.7001 57.8891 27.7225 57.8333 27.7673C57.7775 27.8121 57.7217 27.8569 57.677 27.9129C57.6324 27.9689 57.5989 28.0361 57.5766 28.1033C57.5543 28.1705 57.5208 28.2265 57.4873 28.2825C57.4427 28.3386 57.398 28.3834 57.3422 28.4282C57.2864 28.473 57.2306 28.4954 57.1637 28.5178C57.0967 28.5402 57.0298 28.5514 56.9628 28.5514H55.1438C55.021 28.5514 54.9094 28.5178 54.809 28.4618L52.1752 26.8712C52.0748 26.804 51.9632 26.7816 51.8405 26.7816H47.622C47.4881 26.7816 47.3654 26.8152 47.2649 26.8936L42.0645 30.3659C41.9752 30.4219 41.8971 30.5115 41.8524 30.6011C41.7966 30.7019 41.7743 30.8027 41.7743 30.9147V35.8431C41.7743 35.8909 41.7824 35.9387 41.7918 35.9936L41.7966 36.0223C41.8078 36.0895 41.8301 36.1343 41.8636 36.1791C41.8971 36.2351 41.9305 36.2799 41.9752 36.3135C42.0198 36.3583 42.0645 36.3919 42.1203 36.4143L48.9389 40.0658C48.9947 40.0882 49.0393 40.1218 49.084 40.1666C49.1286 40.2114 49.1621 40.2562 49.1956 40.301C49.2291 40.3458 49.2514 40.4018 49.2625 40.4579C49.2737 40.5138 49.2849 40.5698 49.2849 40.6258L49.3183 43.4036C49.3183 43.4596 49.3295 43.5156 49.3407 43.5716C49.3518 43.6276 49.3741 43.6836 49.4076 43.7284L49.5081 43.8628C49.5527 43.9076 49.5973 43.9412 49.642 43.9636L52.3761 45.4869C52.4319 45.5206 52.4766 45.5542 52.51 45.5878C52.5547 45.6326 52.5882 45.6774 52.6216 45.7222C52.6551 45.767 52.6774 45.823 52.6886 45.879C52.6998 45.935 52.7109 45.991 52.7109 46.047V51.793C52.7109 51.8602 52.7221 51.9162 52.7332 51.9722C52.7556 52.0282 52.7779 52.0842 52.8114 52.1402C52.8448 52.1962 52.8895 52.241 52.9341 52.2858C52.9788 52.3306 53.0346 52.3642 53.0904 52.3866C53.1462 52.409 53.202 52.4314 53.2689 52.4426C53.3359 52.4538 53.3917 52.4538 53.4586 52.4426C53.4701 52.4407 53.4813 52.4388 53.4922 52.4367ZM32.3531 59.7244C32.4738 59.6246 32.5903 59.5718 32.6902 59.5439C32.7795 59.5215 32.8464 59.4879 32.9134 59.4207C32.9804 59.3535 33.0138 59.2863 33.0362 59.1967L34.2191 53.6859C34.2414 53.5627 34.3084 53.4731 34.4088 53.3947L39.7097 49.6312C39.7767 49.5864 39.8213 49.5304 39.8548 49.4632C39.8883 49.396 39.9106 49.3176 39.9106 49.2504V42.1715C39.9106 42.0931 39.8994 42.0259 39.866 41.9587C39.8213 41.8691 39.7767 41.8131 39.7097 41.7683L32.4893 36.3359C32.4 36.2687 32.3108 36.2463 32.2103 36.2463H28.7843C28.6615 36.2463 28.5611 36.2015 28.4718 36.1119L26.8536 34.4878C26.7643 34.3982 26.6527 34.3534 26.5188 34.3534H20.2582C20.2135 34.3534 20.1689 34.3422 20.1242 34.331C20.0911 34.3227 20.0642 34.3082 20.0342 34.2921C20.0238 34.2865 20.013 34.2808 20.0015 34.275C19.968 34.2526 19.9345 34.219 19.9011 34.1854C19.8676 34.1518 19.8453 34.1182 19.8341 34.0734C19.8285 34.051 19.8229 34.0314 19.8174 34.0117L19.8173 34.0117C19.8118 33.9921 19.8062 33.9725 19.8006 33.9501C19.8006 33.9053 19.8006 33.8605 19.8118 33.8157C19.8229 33.7709 19.8341 33.7261 19.8564 33.6925C19.8613 33.6852 19.8661 33.6774 19.8711 33.6694C19.8889 33.6405 19.9083 33.6093 19.9345 33.5917L20.9278 32.5948C21.017 32.5052 21.1175 32.4604 21.2402 32.4604H25.0457C25.1462 32.4604 25.2466 32.4492 25.347 32.4156C25.4475 32.382 25.5368 32.3372 25.6149 32.27C25.693 32.2028 25.7711 32.1356 25.8269 32.046C25.8827 31.9564 25.9274 31.8668 25.9608 31.766L26.7755 28.8762C26.7978 28.809 26.8201 28.753 26.8648 28.7082C26.9094 28.6634 26.9541 28.6186 27.0099 28.585L30.2462 26.9161C30.3243 26.8824 30.3801 26.8264 30.4248 26.748C30.4694 26.6808 30.4917 26.6024 30.4917 26.5128V25.0343C30.4917 24.9447 30.514 24.8551 30.5698 24.7767L32.2885 22.2901C32.3442 22.2117 32.4112 22.1557 32.5005 22.1221L34.8998 21.2149C34.9445 21.2037 34.978 21.1813 35.0226 21.1476C35.0311 21.1391 35.0397 21.1312 35.048 21.1236L35.0481 21.1235C35.0725 21.1011 35.0953 21.0802 35.1119 21.0468C35.1342 21.0132 35.1565 20.9684 35.1677 20.9236C35.1788 20.8788 35.19 20.834 35.19 20.7892V19.4451C35.19 19.3667 35.1677 19.2995 35.1342 19.2323C35.1007 19.1651 35.0449 19.1091 34.9891 19.0755L32.5898 17.485C32.5228 17.4402 32.4447 17.4178 32.3666 17.4066C32.2885 17.4066 32.2103 17.4178 32.1322 17.4514L28.8512 19.0979C28.7731 19.1315 28.695 19.1539 28.6057 19.1427C28.5164 19.1315 28.4495 19.0979 28.3825 19.0531L26.8313 17.821C26.8239 17.8135 26.8152 17.8061 26.8065 17.7986C26.7891 17.7837 26.7718 17.7687 26.7643 17.7538C26.7508 17.7402 26.7414 17.7226 26.7311 17.7033C26.7244 17.6907 26.7173 17.6775 26.7085 17.6642L26.6751 17.5634C26.6639 17.5298 26.6639 17.4962 26.6639 17.4626C26.6639 17.429 26.6639 17.3954 26.6751 17.3618L26.7085 17.261C26.7164 17.2374 26.7297 17.2193 26.7447 17.1991L26.7447 17.199C26.751 17.1904 26.7577 17.1814 26.7643 17.1714C26.7833 17.1428 26.8023 17.1304 26.8282 17.1136L26.8425 17.1042L28.1035 16.1745C28.137 16.1521 28.1593 16.1297 28.1816 16.1073C28.204 16.0849 28.2263 16.0513 28.2374 16.0177L28.2709 15.9169C28.2821 15.8833 28.2821 15.8497 28.2821 15.8161C28.2821 15.7825 28.2821 15.7489 28.2709 15.7153L28.2374 15.6145C28.2296 15.5909 28.2163 15.5728 28.2013 15.5525C28.195 15.5439 28.1883 15.5349 28.1816 15.5249L28.1816 15.5249L28.1816 15.5248L28.1816 15.5248L28.1816 15.5248L28.1816 15.5248C28.1593 15.5024 28.137 15.48 28.1035 15.4577L26.1797 14.1082C20.0042 16.8836 15.0562 22.2351 13.002 29.1618C13.0026 29.1674 13.0034 29.173 13.0043 29.1786C13.0043 29.2458 13.0266 29.3018 13.0601 29.3578L17.2562 37.1088C17.2897 37.176 17.3455 37.232 17.4236 37.2768L21.8429 39.9426C21.8987 39.9762 21.9433 40.021 21.9879 40.077C22.0214 40.133 22.0437 40.2002 22.0549 40.2674L22.9365 46.7078C22.9477 46.775 22.97 46.831 23.0035 46.8871C23.037 46.9431 23.0816 46.9879 23.1262 47.0215L26.5746 49.396C26.6751 49.4632 26.742 49.564 26.7643 49.6872L28.5946 58.4015C28.6057 58.4575 28.628 58.5023 28.6503 58.5471C28.6984 58.6274 28.7895 58.7685 28.9146 58.9327C29.3346 59.062 29.7605 59.1807 30.192 59.2883C30.9124 59.468 31.6334 59.613 32.3531 59.7244ZM36.9073 12.0195C36.8485 12.0219 36.7992 12.0236 36.7749 12.0236C36.1433 12.0457 35.5118 12.0898 34.8803 12.1559C32.5757 12.4095 30.3488 12.9719 28.1993 13.865C28.4874 14.0635 27.9999 14.2399 27.9999 14.2399L28.7644 15.7284H32.8417L35.6448 17.1288L38.1044 15.7174L37.2925 12.0376C37.164 12.0305 37.0356 12.0245 36.9073 12.0195ZM52.7484 18.8155L49.8044 21.1865C49.7157 21.2526 49.616 21.2857 49.5163 21.2857H47.7768C47.6439 21.2857 47.5331 21.3298 47.4444 21.418L46.0263 22.8294C46.0041 22.8514 45.9819 22.8735 45.9709 22.8955C45.9539 22.9124 45.9435 22.9357 45.9345 22.9555C45.9318 22.9617 45.9292 22.9675 45.9266 22.9727C45.9242 22.9796 45.9219 22.986 45.9197 22.9922C45.9113 23.0155 45.9044 23.0347 45.9044 23.0609C45.8933 23.094 45.8933 23.116 45.8933 23.1491C45.8933 23.1822 45.8933 23.2153 45.9044 23.2373C45.9099 23.2539 45.9127 23.2677 45.9155 23.2814C45.9182 23.2952 45.921 23.309 45.9266 23.3256C45.9376 23.3586 45.9487 23.3807 45.9709 23.4027C45.9819 23.4138 45.9903 23.4248 45.9986 23.4358C46.0069 23.4468 46.0152 23.4579 46.0263 23.4689L47.4334 24.8692C47.522 24.9574 47.6328 25.0015 47.7658 25.0015H56.5518C56.585 25.0015 56.6183 25.0015 56.6404 24.9905C56.649 24.9863 56.6592 24.9837 56.6704 24.9808C56.6883 24.9762 56.7087 24.971 56.7291 24.9574C56.7436 24.9478 56.7561 24.9423 56.7673 24.9374C56.7817 24.9311 56.7942 24.9257 56.8066 24.9133C56.814 24.906 56.8226 24.8999 56.8312 24.8937C56.8485 24.8815 56.8657 24.8692 56.8731 24.8472C56.8953 24.8251 56.9174 24.8031 56.9285 24.77C56.9507 24.7479 56.9617 24.7149 56.9728 24.6818C56.9751 24.6749 56.9774 24.6685 56.9797 24.6623C56.988 24.639 56.995 24.6197 56.995 24.5936C56.995 24.5821 56.9963 24.5706 56.9976 24.5596C57 24.5389 57.0022 24.5198 56.995 24.5054L56.9894 24.3774C55.8574 22.3344 54.43 20.4575 52.7484 18.8155ZM48.0649 20.3815L49.9484 18.7496C49.9817 18.7276 50.0038 18.6945 50.026 18.6614C50.0481 18.6284 50.0703 18.5953 50.0814 18.5622C50.0924 18.5291 50.1035 18.485 50.1035 18.4519V18.3417C50.1035 18.3086 50.0924 18.2645 50.0703 18.2314C50.0592 18.1983 50.037 18.1652 50.0149 18.1322C50.0038 18.1156 49.99 18.1018 49.9761 18.0881C49.9623 18.0743 49.9484 18.0605 49.9373 18.044L49.8376 17.9778L47.6439 16.9634C47.6217 16.9524 47.5885 16.9413 47.5552 16.9303C47.522 16.9193 47.4998 16.9193 47.4666 16.9193H47.378C47.3517 16.9193 47.3323 16.9262 47.3089 16.9345C47.3027 16.9367 47.2963 16.939 47.2893 16.9413C47.2561 16.9524 47.2339 16.9634 47.2118 16.9854C47.2007 16.9965 47.1868 17.0047 47.173 17.013C47.1591 17.0213 47.1453 17.0295 47.1342 17.0406L47.0677 17.1067C47.0508 17.1236 47.0403 17.1469 47.0314 17.1667L47.0275 17.1754L47.0234 17.1839L46.1149 19.0694C46.0927 19.1245 46.0706 19.1797 46.0706 19.2348C46.0706 19.2899 46.0706 19.3451 46.0927 19.4002C46.1038 19.4553 46.1371 19.5105 46.1703 19.5546C46.2035 19.5987 46.2479 19.6428 46.2922 19.6648L47.5109 20.4256C47.5552 20.4477 47.5996 20.4697 47.6439 20.4808C47.6882 20.4918 47.7436 20.4918 47.7879 20.4918C47.8322 20.4918 47.8876 20.4808 47.9319 20.4587C47.9873 20.4367 48.0206 20.4146 48.0649 20.3815Z" fill="#3136FF"/>
</g>
<defs>
<clipPath id="clip0_2679_5254">
<rect width="48" height="48.0054" fill="white" transform="translate(12 12)"/>
</clipPath>
</defs>
</svg>
