<svg width="72" height="72" viewBox="0 0 72 72" fill="none" xmlns="http://www.w3.org/2000/svg">
<rect width="72" height="72" rx="16" fill="#3136FF"/>
<path d="M57.5937 27.7895C57.5937 27.6316 57.4337 27.6316 57.4337 27.4737C56.9538 26.6842 56.3139 26.0526 55.674 25.4211C52.7944 22.5789 48.9549 21 44.9555 21C41.7559 21 38.7163 21.9474 36.1567 23.8421C35.9967 23.6842 35.8367 23.6842 35.6767 23.5263C35.5168 23.3684 35.3568 23.3684 35.1968 23.2105C34.8768 23.0526 34.5569 22.8947 34.3969 22.7368L33.437 22.2632C33.2771 22.2632 33.1171 22.1053 33.1171 22.1053C32.4772 21.9474 32.1572 21.7895 31.8373 21.7895C31.6773 21.7895 31.5173 21.6316 31.3573 21.6316C31.0374 21.4737 30.7174 21.4737 30.3975 21.3158C30.2375 21.3158 30.0775 21.3158 29.9175 21.1579C29.5976 21.1579 29.2776 21 28.9577 21H27.0379C18.8791 21 12 27.7895 12 36C12 44.2105 18.8791 51 27.1979 51H29.1176C29.4376 51 29.7576 50.8421 30.0775 50.8421C30.2375 50.8421 30.3975 50.8421 30.5574 50.6842C30.8774 50.6842 31.1974 50.5263 31.5173 50.3684C31.6773 50.3684 31.8373 50.2105 31.9972 50.2105C32.3172 50.0526 32.6372 50.0526 32.9571 49.8947C33.1171 49.8947 33.2771 49.7368 33.2771 49.7368L34.2369 49.2632C34.5569 49.1053 34.8768 48.9474 35.0368 48.7895C35.1968 48.6316 35.3568 48.6316 35.5168 48.4737C35.6767 48.3158 35.8367 48.3158 35.9967 48.1579C38.5563 49.8947 41.5959 51 44.7955 51C48.7949 51 52.6344 49.4211 55.514 46.5789C60.6333 41.5263 61.4332 33.6316 57.5937 27.7895ZM57.7537 39.9474H41.9159C42.0759 39.4737 42.2358 38.8421 42.2358 38.3684H58.2336C58.0736 38.8421 57.9137 39.4737 57.7537 39.9474ZM56.3139 43.1053H40.6361C40.956 42.6316 41.116 42 41.4359 41.5263H57.2738C56.9538 42.1579 56.6338 42.6316 56.3139 43.1053ZM40.796 36V36.7895H31.1974V35.2105H40.796V36ZM31.8373 39.9474C31.6773 39.4737 31.5173 38.8421 31.5173 38.3684H40.6361C40.4761 38.8421 40.4761 39.4737 40.3161 39.9474H31.8373ZM31.3573 33.6316C31.5173 33.1579 31.5173 32.5263 31.6773 32.0526H39.9961C40.1561 32.5263 40.3161 33.1579 40.3161 33.6316H31.3573ZM41.9159 32.0526H57.7537C57.9137 32.5263 58.0736 33.1579 58.0736 33.6316H42.0759C42.0759 33.1579 41.9159 32.5263 41.9159 32.0526ZM57.1138 30.4737H41.276C41.116 30 40.796 29.3684 40.4761 28.8947H56.1539C56.6338 29.3684 56.9538 30 57.1138 30.4737ZM39.5162 30.4737H32.3172C32.6372 29.8421 32.7971 29.3684 33.2771 28.8947H38.7163C39.0363 29.3684 39.3562 30 39.5162 30.4737ZM34.3969 27.3158C34.5569 27 34.8768 26.8421 35.1968 26.5263L35.8367 25.8947H35.9967C36.4766 26.3684 37.1165 26.8421 37.5965 27.4737L34.3969 27.3158ZM35.9967 46.2632C35.6767 45.9474 35.3568 45.7895 35.1968 45.4737L34.3969 44.6842H37.5965C37.1165 45.1579 36.6366 45.7895 35.9967 46.2632ZM33.597 43.1053H33.2771C32.9571 42.6316 32.6372 42 32.3172 41.5263H39.5162C39.1962 42 39.0363 42.6316 38.7163 43.1053H33.597ZM42.3958 36.7895V36V35.2105H58.3936V36.7895H42.3958ZM55.194 27.3158H39.6762C39.1962 26.6842 38.8763 26.2105 38.3964 25.7368H53.5943C53.9142 26.0526 54.2342 26.2105 54.3942 26.5263L55.194 27.3158ZM51.1946 24.1579H38.3964C40.3161 23.0526 42.5558 22.5789 44.7955 22.5789C47.0352 22.5789 49.2749 23.0526 51.1946 24.1579ZM38.3964 47.8421H51.1946C49.2749 48.9474 47.0352 49.4211 44.7955 49.4211C42.5558 49.4211 40.3161 48.9474 38.3964 47.8421ZM53.2743 46.4211C53.1143 46.2632 52.9544 46.2632 52.7944 46.2632H38.2364C38.7163 45.7895 39.1962 45.3158 39.5162 44.6842H55.194C55.0341 45 54.7141 45.1579 54.3942 45.4737C54.0742 45.7895 53.7542 46.1053 53.2743 46.4211Z" fill="white"/>
<path d="M57.5937 27.7895C57.5937 27.6316 57.4337 27.6316 57.4337 27.4737C56.9538 26.6842 56.3139 26.0526 55.674 25.4211C52.7944 22.5789 48.9549 21 44.9555 21C41.7559 21 38.7163 21.9474 36.1567 23.8421C35.9967 23.6842 35.8367 23.6842 35.6767 23.5263C35.5168 23.3684 35.3568 23.3684 35.1968 23.2105C34.8768 23.0526 34.5569 22.8947 34.3969 22.7368L33.437 22.2632C33.2771 22.2632 33.1171 22.1053 33.1171 22.1053C32.4772 21.9474 32.1572 21.7895 31.8373 21.7895C31.6773 21.7895 31.5173 21.6316 31.3573 21.6316C31.0374 21.4737 30.7174 21.4737 30.3975 21.3158C30.2375 21.3158 30.0775 21.3158 29.9175 21.1579C29.5976 21.1579 29.2776 21 28.9577 21H27.0379C18.8791 21 12 27.7895 12 36C12 44.2105 18.8791 51 27.1979 51H29.1176C29.4376 51 29.7576 50.8421 30.0775 50.8421C30.2375 50.8421 30.3975 50.8421 30.5574 50.6842C30.8774 50.6842 31.1974 50.5263 31.5173 50.3684C31.6773 50.3684 31.8373 50.2105 31.9972 50.2105C32.3172 50.0526 32.6372 50.0526 32.9571 49.8947C33.1171 49.8947 33.2771 49.7368 33.2771 49.7368L34.2369 49.2632C34.5569 49.1053 34.8768 48.9474 35.0368 48.7895C35.1968 48.6316 35.3568 48.6316 35.5168 48.4737C35.6767 48.3158 35.8367 48.3158 35.9967 48.1579C38.5563 49.8947 41.5959 51 44.7955 51C48.7949 51 52.6344 49.4211 55.514 46.5789C60.6333 41.5263 61.4332 33.6316 57.5937 27.7895ZM57.7537 39.9474H41.9159C42.0759 39.4737 42.2358 38.8421 42.2358 38.3684H58.2336C58.0736 38.8421 57.9137 39.4737 57.7537 39.9474ZM56.3139 43.1053H40.6361C40.956 42.6316 41.116 42 41.4359 41.5263H57.2738C56.9538 42.1579 56.6338 42.6316 56.3139 43.1053ZM40.796 36V36.7895H31.1974V35.2105H40.796V36ZM31.8373 39.9474C31.6773 39.4737 31.5173 38.8421 31.5173 38.3684H40.6361C40.4761 38.8421 40.4761 39.4737 40.3161 39.9474H31.8373ZM31.3573 33.6316C31.5173 33.1579 31.5173 32.5263 31.6773 32.0526H39.9961C40.1561 32.5263 40.3161 33.1579 40.3161 33.6316H31.3573ZM41.9159 32.0526H57.7537C57.9137 32.5263 58.0736 33.1579 58.0736 33.6316H42.0759C42.0759 33.1579 41.9159 32.5263 41.9159 32.0526ZM57.1138 30.4737H41.276C41.116 30 40.796 29.3684 40.4761 28.8947H56.1539C56.6338 29.3684 56.9538 30 57.1138 30.4737ZM39.5162 30.4737H32.3172C32.6372 29.8421 32.7971 29.3684 33.2771 28.8947H38.7163C39.0363 29.3684 39.3562 30 39.5162 30.4737ZM34.3969 27.3158C34.5569 27 34.8768 26.8421 35.1968 26.5263L35.8367 25.8947H35.9967C36.4766 26.3684 37.1165 26.8421 37.5965 27.4737L34.3969 27.3158ZM35.9967 46.2632C35.6767 45.9474 35.3568 45.7895 35.1968 45.4737L34.3969 44.6842H37.5965C37.1165 45.1579 36.6366 45.7895 35.9967 46.2632ZM33.597 43.1053H33.2771C32.9571 42.6316 32.6372 42 32.3172 41.5263H39.5162C39.1962 42 39.0363 42.6316 38.7163 43.1053H33.597ZM42.3958 36.7895V36V35.2105H58.3936V36.7895H42.3958ZM55.194 27.3158H39.6762C39.1962 26.6842 38.8763 26.2105 38.3964 25.7368H53.5943C53.9142 26.0526 54.2342 26.2105 54.3942 26.5263L55.194 27.3158ZM51.1946 24.1579H38.3964C40.3161 23.0526 42.5558 22.5789 44.7955 22.5789C47.0352 22.5789 49.2749 23.0526 51.1946 24.1579ZM38.3964 47.8421H51.1946C49.2749 48.9474 47.0352 49.4211 44.7955 49.4211C42.5558 49.4211 40.3161 48.9474 38.3964 47.8421ZM53.2743 46.4211C53.1143 46.2632 52.9544 46.2632 52.7944 46.2632H38.2364C38.7163 45.7895 39.1962 45.3158 39.5162 44.6842H55.194C55.0341 45 54.7141 45.1579 54.3942 45.4737C54.0742 45.7895 53.7542 46.1053 53.2743 46.4211Z" fill="#3136FF" fill-opacity="0.1"/>
</svg>
