<svg width="72" height="72" viewBox="0 0 72 72" fill="none" xmlns="http://www.w3.org/2000/svg">
<rect width="72" height="72" rx="16" fill="#3136FF"/>
<path d="M52.2848 18C52.2848 18 49.542 18 45.0848 16.2857C40.2848 14.5714 37.3705 12.6857 37.3705 12.6857L35.9991 12L34.7991 12.6857C34.7991 12.6857 31.7134 14.5714 27.0848 16.2857C22.4562 17.8286 19.8848 18 19.8848 18L17.6562 18.1714V41.8286C17.6562 50.5714 33.942 60 35.9991 60C37.8848 60 54.342 50.5714 54.342 41.8286V18.1714L52.2848 18ZM35.6695 44.1663C35.199 44.7559 34.3272 44.823 33.7721 44.3123L27.6453 38.6756C26.8456 37.9399 26.748 36.7124 27.4213 35.8596C28.1666 34.9155 29.5555 34.7997 30.4468 35.6075L33.7107 38.5654C34.0219 38.8474 34.5065 38.8086 34.7688 38.4807L43.1352 28.0227C43.9081 27.0566 45.3414 26.9566 46.2409 27.8061C47.041 28.5617 47.1284 29.8044 46.4421 30.6646L35.6695 44.1663Z" fill="#F5F5FA"/>
</svg>
