<svg width="72" height="72" viewBox="0 0 72 72" fill="none" xmlns="http://www.w3.org/2000/svg">
<rect width="72" height="72" rx="16" fill="#3136FF"/>
<path d="M39 24.2381V22.5H40.5C41.3288 22.5 42 21.8288 42 21V19.5C42 18.6712 41.3288 18 40.5 18H31.5C30.6712 18 30 18.6712 30 19.5V21C30 21.8288 30.6712 22.5 31.5 22.5H33V24.2381C22.8272 25.6978 15 34.4231 15 45H57C57 34.4231 49.1728 25.6978 39 24.2381ZM58.5 48H13.5C12.6712 48 12 48.6712 12 49.5V52.5C12 53.3288 12.6712 54 13.5 54H58.5C59.3288 54 60 53.3288 60 52.5V49.5C60 48.6712 59.3288 48 58.5 48Z" fill="white"/>
<path d="M39 24.2381V22.5H40.5C41.3288 22.5 42 21.8288 42 21V19.5C42 18.6712 41.3288 18 40.5 18H31.5C30.6712 18 30 18.6712 30 19.5V21C30 21.8288 30.6712 22.5 31.5 22.5H33V24.2381C22.8272 25.6978 15 34.4231 15 45H57C57 34.4231 49.1728 25.6978 39 24.2381ZM58.5 48H13.5C12.6712 48 12 48.6712 12 49.5V52.5C12 53.3288 12.6712 54 13.5 54H58.5C59.3288 54 60 53.3288 60 52.5V49.5C60 48.6712 59.3288 48 58.5 48Z" fill="#3136FF" fill-opacity="0.1"/>
</svg>
